<svg data-v-423bf9ae="" xmlns="http://www.w3.org/2000/svg" viewBox="0 0 507 90" class="iconLeft"><!----><!----><!----><g data-v-423bf9ae="" id="19564c4d-f43a-46e8-a2cd-3424e58a135a" fill="#ffffff" transform="matrix(5.597014785954833,0,0,5.597014785954833,122.30695569687165,-3.358207622544242)"><path d="M7.49 5.80L7.49 5.80Q7.35 5.28 7.19 5.02L7.19 5.02L7.19 5.02Q7.03 4.76 6.75 4.65L6.75 4.65L6.75 4.65Q6.47 4.55 5.96 4.55L5.96 4.55L5.33 4.55L5.33 4.55Q5.04 4.55 4.95 4.75L4.95 4.75L4.95 4.75Q4.86 4.96 4.86 5.61L4.86 5.61L4.86 11.94L4.86 11.94Q4.86 12.59 5.04 12.84L5.04 12.84L5.04 12.84Q5.22 13.09 5.75 13.24L5.75 13.24L6.08 13.33L5.91 13.80L2.84 13.80L2.66 13.58L2.84 13.33L2.84 13.33Q3.19 12.87 3.33 12.35L3.33 12.35L3.33 12.35Q3.47 11.83 3.47 10.99L3.47 10.99L3.47 5.61L3.47 5.61Q3.47 4.96 3.38 4.75L3.38 4.75L3.38 4.75Q3.29 4.55 3.00 4.55L3.00 4.55L2.37 4.55L2.37 4.55Q1.86 4.55 1.58 4.65L1.58 4.65L1.58 4.65Q1.30 4.76 1.14 5.02L1.14 5.02L1.14 5.02Q0.98 5.28 0.84 5.80L0.84 5.80L0.76 6.12L0.28 5.95L0.28 3.46L0.50 3.28L0.76 3.46L0.76 3.46Q1.15 3.75 2.35 3.75L2.35 3.75L5.98 3.75L5.98 3.75Q7.18 3.75 7.57 3.46L7.57 3.46L7.83 3.28L8.05 3.46L8.05 5.95L7.57 6.12L7.49 5.80ZM7.98 10.33L7.98 10.33Q7.98 9.21 8.39 8.39L8.39 8.39L8.39 8.39Q8.81 7.56 9.58 7.11L9.58 7.11L9.58 7.11Q10.36 6.66 11.40 6.66L11.40 6.66L11.40 6.66Q12.43 6.66 13.20 7.11L13.20 7.11L13.20 7.11Q13.97 7.56 14.39 8.39L14.39 8.39L14.39 8.39Q14.81 9.21 14.81 10.33L14.81 10.33L14.81 10.33Q14.81 11.44 14.39 12.27L14.39 12.27L14.39 12.27Q13.97 13.10 13.20 13.55L13.20 13.55L13.20 13.55Q12.43 14 11.40 14L11.40 14L11.40 14Q10.36 14 9.58 13.55L9.58 13.55L9.58 13.55Q8.81 13.10 8.39 12.27L8.39 12.27L8.39 12.27Q7.98 11.44 7.98 10.33L7.98 10.33ZM13.34 10.37L13.34 10.37Q13.34 9.72 13.16 9.03L13.16 9.03L13.16 9.03Q12.98 8.34 12.55 7.87L12.55 7.87L12.55 7.87Q12.12 7.39 11.44 7.39L11.44 7.39L11.44 7.39Q10.85 7.39 10.39 7.76L10.39 7.76L10.39 7.76Q9.94 8.13 9.69 8.81L9.69 8.81L9.69 8.81Q9.44 9.48 9.44 10.35L9.44 10.35L9.44 10.35Q9.44 11.68 9.95 12.46L9.95 12.46L9.95 12.46Q10.47 13.24 11.35 13.24L11.35 13.24L11.35 13.24Q11.93 13.24 12.38 12.89L12.38 12.89L12.38 12.89Q12.84 12.53 13.09 11.88L13.09 11.88L13.09 11.88Q13.34 11.23 13.34 10.37L13.34 10.37ZM22.65 12.57L22.65 12.57Q22.65 13.01 23.06 13.01L23.06 13.01L23.06 13.01Q23.38 13.01 23.74 12.75L23.74 12.75L24.01 13.12L24.01 13.12Q23.69 13.51 23.26 13.76L23.26 13.76L23.26 13.76Q22.83 14 22.47 14L22.47 14L22.47 14Q21.91 14 21.65 13.68L21.65 13.68L21.65 13.68Q21.39 13.36 21.39 12.66L21.39 12.66L21.39 12.66Q21.07 13.27 20.43 13.64L20.43 13.64L20.43 13.64Q19.80 14 19.03 14L19.03 14L19.03 14Q18.02 14 17.45 13.39L17.45 13.39L17.45 13.39Q16.88 12.78 16.88 11.68L16.88 11.68L16.88 8.18L16.88 8.18Q16.88 7.87 16.60 7.87L16.60 7.87L15.99 7.87L15.86 7.50L15.86 7.50Q16.23 7.14 16.75 6.90L16.75 6.90L16.75 6.90Q17.28 6.66 17.71 6.66L17.71 6.66L17.71 6.66Q17.91 6.66 18.03 6.79L18.03 6.79L18.03 6.79Q18.16 6.92 18.16 7.11L18.16 7.11L18.16 11.35L18.16 11.35Q18.16 12.19 18.50 12.63L18.50 12.63L18.50 12.63Q18.84 13.06 19.50 13.06L19.50 13.06L19.50 13.06Q20.44 13.06 20.96 12.25L20.96 12.25L20.96 12.25Q21.49 11.44 21.49 10.01L21.49 10.01L21.49 10.01Q21.49 8.97 21.37 8.39L21.37 8.39L21.37 8.39Q21.25 7.81 20.94 7.28L20.94 7.28L20.78 7.06L20.94 6.85L22.65 6.66L22.65 12.57ZM27.15 8.75L27.23 8.75L27.23 8.75Q27.47 7.81 27.96 7.24L27.96 7.24L27.96 7.24Q28.46 6.66 29.05 6.66L29.05 6.66L29.05 6.66Q29.64 6.66 30.02 7.05L30.02 7.05L30.02 7.05Q30.41 7.43 30.41 8.09L30.41 8.09L30.41 8.09Q30.41 8.62 30.02 8.99L30.02 8.99L30.02 8.99Q29.62 9.35 29.04 9.35L29.04 9.35L29.04 9.35Q28.77 9.35 28.77 9.20L28.77 9.20L28.77 9.20Q28.77 9.16 28.89 8.99L28.89 8.99L28.89 8.99Q29.01 8.82 29.09 8.64L29.09 8.64L29.09 8.64Q29.16 8.46 29.16 8.23L29.16 8.23L29.16 8.23Q29.16 7.98 29.03 7.83L29.03 7.83L29.03 7.83Q28.90 7.69 28.70 7.69L28.70 7.69L28.70 7.69Q28.36 7.69 28.01 8.09L28.01 8.09L28.01 8.09Q27.65 8.48 27.40 9.37L27.40 9.37L27.40 9.37Q27.15 10.26 27.15 11.62L27.15 11.62L27.15 11.62Q27.15 12.25 27.24 12.63L27.24 12.63L27.24 12.63Q27.34 13.02 27.59 13.37L27.59 13.37L27.76 13.59L27.59 13.80L25.14 13.80L24.99 13.37L25.28 13.30L25.28 13.30Q25.63 13.22 25.75 13.00L25.75 13.00L25.75 13.00Q25.87 12.78 25.87 12.25L25.87 12.25L25.87 8.32L25.87 8.32Q25.87 8.15 25.81 8.08L25.81 8.08L25.81 8.08Q25.75 8.01 25.59 8.01L25.59 8.01L24.98 8.01L24.85 7.64L24.85 7.64Q25.26 7.28 25.78 7.04L25.78 7.04L25.78 7.04Q26.31 6.80 26.70 6.80L26.70 6.80L26.70 6.80Q26.89 6.80 27.02 6.93L27.02 6.93L27.02 6.93Q27.15 7.06 27.15 7.25L27.15 7.25L27.15 8.75ZM31.70 4.59L31.70 4.59Q31.70 4.33 32.00 4.00L32.00 4.00L32.00 4.00Q32.30 3.67 32.55 3.67L32.55 3.67L32.55 3.67Q32.82 3.67 33.12 3.99L33.12 3.99L33.12 3.99Q33.43 4.31 33.43 4.59L33.43 4.59L33.43 4.59Q33.43 4.86 33.12 5.18L33.12 5.18L33.12 5.18Q32.82 5.50 32.55 5.50L32.55 5.50L32.55 5.50Q32.31 5.50 32.00 5.18L32.00 5.18L32.00 5.18Q31.70 4.86 31.70 4.59L31.70 4.59ZM33.18 12.57L33.18 12.57Q33.18 13.05 33.60 13.05L33.60 13.05L33.60 13.05Q33.95 13.05 34.30 12.75L34.30 12.75L34.57 13.12L34.57 13.12Q34.20 13.52 33.78 13.76L33.78 13.76L33.78 13.76Q33.36 14 33.00 14L33.00 14L33.00 14Q32.42 14 32.17 13.65L32.17 13.65L32.17 13.65Q31.92 13.30 31.92 12.52L31.92 12.52L31.92 8.18L31.92 8.18Q31.92 8.01 31.86 7.94L31.86 7.94L31.86 7.94Q31.79 7.87 31.64 7.87L31.64 7.87L31.02 7.87L30.90 7.50L30.90 7.50Q31.30 7.14 31.82 6.90L31.82 6.90L31.82 6.90Q32.34 6.66 32.75 6.66L32.75 6.66L32.75 6.66Q32.94 6.66 33.07 6.79L33.07 6.79L33.07 6.79Q33.19 6.92 33.19 7.11L33.19 7.11L33.18 12.57ZM38.15 13.31L38.15 13.31Q38.72 13.31 39.10 13.00L39.10 13.00L39.10 13.00Q39.47 12.68 39.47 12.18L39.47 12.18L39.47 12.18Q39.47 11.73 39.08 11.45L39.08 11.45L39.08 11.45Q38.70 11.17 37.94 10.85L37.94 10.85L37.94 10.85Q37.25 10.57 36.80 10.30L36.80 10.30L36.80 10.30Q36.34 10.04 36.02 9.61L36.02 9.61L36.02 9.61Q35.70 9.18 35.70 8.55L35.70 8.55L35.70 8.55Q35.70 7.71 36.42 7.19L36.42 7.19L36.42 7.19Q37.14 6.66 38.25 6.66L38.25 6.66L38.25 6.66Q39.24 6.66 39.90 7.06L39.90 7.06L39.90 7.06Q40.56 7.45 40.56 8.11L40.56 8.11L40.56 8.11Q40.56 8.64 40.23 8.98L40.23 8.98L40.23 8.98Q39.90 9.32 39.38 9.32L39.38 9.32L39.38 9.32Q39.09 9.32 39.09 9.14L39.09 9.14L39.09 9.14Q39.09 9.09 39.19 8.86L39.19 8.86L39.19 8.86Q39.30 8.62 39.30 8.36L39.30 8.36L39.30 8.36Q39.30 7.84 38.95 7.59L38.95 7.59L38.95 7.59Q38.60 7.34 38.15 7.34L38.15 7.34L38.15 7.34Q37.58 7.34 37.25 7.62L37.25 7.62L37.25 7.62Q36.92 7.91 36.92 8.36L36.92 8.36L36.92 8.36Q36.92 8.88 37.33 9.19L37.33 9.19L37.33 9.19Q37.74 9.51 38.56 9.84L38.56 9.84L38.56 9.84Q39.23 10.12 39.68 10.37L39.68 10.37L39.68 10.37Q40.12 10.61 40.43 10.99L40.43 10.99L40.43 10.99Q40.74 11.37 40.74 11.90L40.74 11.90L40.74 11.90Q40.74 12.85 39.98 13.43L39.98 13.43L39.98 13.43Q39.23 14 37.97 14L37.97 14L37.97 14Q36.90 14 36.22 13.52L36.22 13.52L36.22 13.52Q35.53 13.05 35.53 12.25L35.53 12.25L35.53 12.25Q35.53 11.77 35.85 11.47L35.85 11.47L35.85 11.47Q36.18 11.16 36.69 11.16L36.69 11.16L36.69 11.16Q36.99 11.16 36.99 11.33L36.99 11.33L36.99 11.33Q36.99 11.37 36.90 11.59L36.90 11.59L36.90 11.59Q36.82 11.80 36.82 12.11L36.82 12.11L36.82 12.11Q36.82 12.70 37.23 13.01L37.23 13.01L37.23 13.01Q37.65 13.31 38.15 13.31L38.15 13.31ZM44.17 6.85L45.99 6.85L45.99 6.85Q45.99 7.14 45.91 7.38L45.91 7.38L45.91 7.38Q45.82 7.62 45.67 7.73L45.67 7.73L44.17 7.73L44.17 12.24L44.17 12.24Q44.17 12.67 44.30 12.85L44.30 12.85L44.30 12.85Q44.42 13.03 44.70 13.03L44.70 13.03L44.70 13.03Q45.12 13.03 45.65 12.59L45.65 12.59L45.92 12.95L45.92 12.95Q45.56 13.43 45.05 13.71L45.05 13.71L45.05 13.71Q44.55 14 44.10 14L44.10 14L44.10 14Q43.53 14 43.21 13.64L43.21 13.64L43.21 13.64Q42.90 13.29 42.90 12.66L42.90 12.66L42.90 7.73L41.66 7.73L41.66 7.73Q41.66 7.35 41.72 7.24L41.72 7.24L41.72 7.24Q41.78 7.13 42.00 7.07L42.00 7.07L42.00 7.07Q42.74 6.87 43.06 6.43L43.06 6.43L43.06 6.43Q43.37 5.99 43.51 5.29L43.51 5.29L43.51 5.29Q43.55 5.07 43.66 5.01L43.66 5.01L43.66 5.01Q43.76 4.96 44.17 4.96L44.17 4.96L44.17 6.85ZM56.53 13.80L56.36 13.33L56.69 13.24L56.69 13.24Q57.02 13.16 57.17 13.02L57.17 13.02L57.17 13.02Q57.32 12.88 57.32 12.63L57.32 12.63L57.32 12.63Q57.32 12.40 57.16 11.94L57.16 11.94L56.49 9.98L53.26 9.98L52.92 11.00L52.92 11.00Q52.60 11.97 52.60 12.47L52.60 12.47L52.60 12.47Q52.60 12.95 52.79 13.33L52.79 13.33L52.92 13.58L52.65 13.80L50.08 13.80L49.91 13.33L50.23 13.24L50.23 13.24Q50.79 13.09 51.04 12.84L51.04 12.84L51.04 12.84Q51.30 12.59 51.52 11.94L51.52 11.94L53.72 5.61L53.72 5.61Q53.87 5.15 53.87 4.93L53.87 4.93L53.87 4.93Q53.87 4.68 53.73 4.54L53.73 4.54L53.73 4.54Q53.58 4.40 53.24 4.31L53.24 4.31L52.92 4.23L53.09 3.75L55.79 3.75L58.60 11.87L58.60 11.87Q58.83 12.52 59.09 12.85L59.09 12.85L59.09 12.85Q59.36 13.19 59.86 13.58L59.86 13.58L59.68 13.80L56.53 13.80ZM54.85 5.19L53.55 9.11L56.20 9.11L54.85 5.19ZM68.71 13.44L68.71 13.44Q68.14 14 67.42 14L67.42 14L67.42 14Q66.74 14 66.32 13.61L66.32 13.61L66.32 13.61Q65.90 13.22 65.49 12.36L65.49 12.36L64.43 10.11L64.43 10.11Q64.30 9.83 64.11 9.70L64.11 9.70L64.11 9.70Q63.92 9.58 63.48 9.41L63.48 9.41L63.48 9.41Q63.21 9.31 63.21 9.09L63.21 9.09L63.21 9.09Q63.21 8.95 63.27 8.85L63.27 8.85L63.27 8.85Q63.32 8.75 63.43 8.75L63.43 8.75L63.43 8.75Q63.49 8.75 63.67 8.80L63.67 8.80L63.67 8.80Q63.84 8.85 64.12 8.85L64.12 8.85L64.12 8.85Q65.17 8.85 65.76 8.25L65.76 8.25L65.76 8.25Q66.35 7.66 66.35 6.66L66.35 6.66L66.35 6.66Q66.35 5.64 65.72 4.99L65.72 4.99L65.72 4.99Q65.10 4.34 63.97 4.34L63.97 4.34L63.97 4.34Q62.90 4.34 62.90 4.98L62.90 4.98L62.90 10.99L62.90 10.99Q62.90 11.83 63.04 12.34L63.04 12.34L63.04 12.34Q63.18 12.85 63.53 13.33L63.53 13.33L63.71 13.58L63.53 13.80L60.47 13.80L60.30 13.33L60.62 13.24L60.62 13.24Q61.15 13.10 61.33 12.84L61.33 12.84L61.33 12.84Q61.52 12.57 61.52 11.94L61.52 11.94L61.52 5.03L61.52 5.03Q61.52 4.84 61.45 4.77L61.45 4.77L61.45 4.77Q61.38 4.69 61.21 4.69L61.21 4.69L60.40 4.69L60.23 4.17L60.23 4.17Q60.83 3.93 61.82 3.74L61.82 3.74L61.82 3.74Q62.80 3.56 63.71 3.56L63.71 3.56L63.71 3.56Q65.79 3.56 66.79 4.41L66.79 4.41L66.79 4.41Q67.80 5.26 67.80 6.62L67.80 6.62L67.80 6.62Q67.80 7.66 67.23 8.43L67.23 8.43L67.23 8.43Q66.65 9.20 65.53 9.46L65.53 9.46L65.53 9.46Q65.84 9.67 66.09 10.15L66.09 10.15L67.40 12.80L67.40 12.80Q67.62 13.23 67.93 13.23L67.93 13.23L67.93 13.23Q68.19 13.23 68.47 13.03L68.47 13.03L68.71 13.44Z"></path></g><!----><g data-v-423bf9ae="" id="0029f4b0-e931-4dbd-85d9-99a552561c76" transform="matrix(1.154156830577141,0,0,1.154156830577141,-5.7078415288570525,-12.698653683316152)" stroke="none" fill="#34A1E5"><path d="M72.997 11.019h-46L5 49.989l21.997 39.009h46L95 49.989l-22.003-38.97zm-1.834 69.02c-3.501-8.225-11.655-14.031-21.166-14.031-9.51 0-17.664 5.807-21.165 14.03L13.59 53.007h15.406a3 3 0 1 0 0-6H13.573L28.749 20.12l7.643 13.375a2.999 2.999 0 1 0 5.208-2.977l-7.714-13.5h32.219l-7.715 13.5a3 3 0 0 0 5.208 2.977l7.644-13.376 15.182 26.888h-15.43a3 3 0 1 0 0 6H86.41L71.163 80.039z"></path><path d="M50 37.009c-7.168 0-13 5.832-13 13.001 0 7.167 5.832 12.999 13 12.999s13-5.832 13-12.999c0-7.169-5.832-13.001-13-13.001z"></path></g><!----></svg>